<svg viewBox="0 0 100 120" xmlns="http://www.w3.org/2000/svg">
  <!-- Orejas de conejo -->
  <path d="M35 8 Q30 0 28 8 Q26 30 35 45 Q40 35 38 20 Q37 12 35 8" fill="#C97B8D"/>
  <path d="M65 8 Q70 0 72 8 Q74 30 65 45 Q60 35 62 20 Q63 12 65 8" fill="#C97B8D"/>
  <!-- Cuerpo circular -->
  <circle cx="50" cy="70" r="42" fill="#C97B8D"/>
  <!-- Círculo interior blanco -->
  <circle cx="50" cy="68" r="22" fill="#FFFFFF"/>
  <!-- Corazón nariz -->
  <path d="M50 78 C45 73 40 68 45 63 C48 60 50 62 50 62 C50 62 52 60 55 63 C60 68 55 73 50 78" fill="#C97B8D" stroke="none"/>
  <!-- Patitas (cola de zanahoria) -->
  <path d="M42 108 Q50 115 58 108" fill="none" stroke="#C97B8D" stroke-width="3" stroke-linecap="round"/>
</svg>
